Coordinates
version=1
nRows=10
nColumns=40
inDegrees=yes

Units are S.I. units (second, meters, Newtons, ...)
Angles are in degrees.

endheader
time	pelvis_tilt	pelvis_list	pelvis_rotation	pelvis_tx	pelvis_ty	pelvis_tz	hip_flexion_r	hip_adduction_r	hip_rotation_r	knee_angle_r	knee_angle_r_beta	ankle_angle_r	subtalar_angle_r	mtp_angle_r	hip_flexion_l	hip_adduction_l	hip_rotation_l	knee_angle_l	knee_angle_l_beta	ankle_angle_l	subtalar_angle_l	mtp_angle_l	lumbar_extension	lumbar_bending	lumbar_rotation	arm_flex_r	arm_add_r	arm_rot_r	elbow_flex_r	pro_sup_r	wrist_flex_r	wrist_dev_r	arm_flex_l	arm_add_l	arm_rot_l	elbow_flex_l	pro_sup_l	wrist_flex_l	wrist_dev_l
     10.73750000	     -4.45544287	     -4.73932000	      3.14608676	      1.02036702	      0.91302014	      0.44890387	      1.60346549	     -1.90509148	    -12.12388027	     32.18231311	     32.18231311	     14.09922606	     -5.43136364	    -15.22647136	     30.30688296	     -5.33859732	     -0.38156169	     30.32891413	     30.32891413	      7.94117446	    -16.71536093	      7.26109986	     -9.71029039	      3.87541097	      4.88596940	     47.82090120	    -14.77537307	     -1.89664834	    104.47353775	     44.57594612	      0.00000000	      0.00000000	    -17.22522816	     -5.78479709	      7.07216030	     21.89831758	     44.76919752	      0.00000000	      0.00000000
     10.74857143	     -4.36243245	     -4.56859606	      3.03777233	      1.02052925	      0.91474202	      0.44630357	      3.18228952	     -2.78963656	    -11.96474666	     36.00978576	     36.00978576	     12.32121272	     -6.53328475	    -15.70793940	     29.38162799	     -5.10656186	     -0.73163214	     29.99633601	     29.99633601	      8.49898256	    -16.55063994	      7.03717184	     -9.81493322	      3.78290849	      4.54047803	     46.31097578	    -14.40822857	     -1.58395656	    104.13680773	     44.57419520	      0.00000000	      0.00000000	    -16.23051772	     -5.80998747	      7.11631020	     22.29586316	     44.78467231	      0.00000000	      0.00000000
     10.75964286	     -4.38384449	     -4.38169986	      2.90210659	      1.02046392	      0.91624874	      0.44388652	      5.06868704	     -3.64034216	    -11.60947388	     39.97336908	     39.97336908	     10.13361500	     -8.08892819	    -16.07266330	     28.56282349	     -4.85815598	     -1.05798764	     29.61028898	     29.61028898	      8.89294720	    -16.37376537	      6.83761896	     -9.77203845	      3.67894696	      4.29124209	     44.59205252	    -14.14542818	     -1.33058163	    103.81517029	     44.57306059	      0.00000000	      0.00000000	    -15.22669835	     -5.93420858	      7.10778533	     22.84457149	     44.80804768	      0.00000000	      0.00000000
     10.77071429	     -4.47241156	     -4.32849835	      2.79087277	      1.02022169	      0.91756547	      0.44166824	      7.11568693	     -4.22323956	    -11.12903457	     43.84553684	     43.84553684	      7.49551588	    -10.27941703	    -16.34610632	     27.81894593	     -4.72796371	     -1.28571016	     29.16398545	     29.16398545	      9.27517262	    -16.23829466	      6.52744329	     -9.67870437	      3.68815646	      4.16879876	     42.67070673	    -14.06045336	     -1.26631517	    103.50029103	     44.58014694	      0.00000000	      0.00000000	    -14.18358953	     -6.10368594	      7.03705019	     23.74885201	     44.84363204	      0.00000000	      0.00000000
     10.78178571	     -4.43754129	     -4.18603534	      2.63658594	      1.01993615	      0.91896634	      0.43954271	      9.08437170	     -4.94129924	    -10.75703430	     47.66342770	     47.66342770	      4.90726397	    -11.94792208	    -16.07716212	     26.93668337	     -4.55622738	     -1.67498542	     28.71938520	     28.71938520	      9.58723062	    -15.99599138	      6.27472265	     -9.73481647	      3.63563162	      3.97183428	     40.70853595	    -13.83747140	     -1.08984061	    103.06416998	     44.58443544	      0.00000000	      0.00000000	    -13.13860123	     -6.39047276	      6.93852554	     24.53729836	     44.88131059	      0.00000000	      0.00000000
     10.79285714	     -4.43906206	     -4.10352748	      2.50145351	      1.01950176	      0.92019126	      0.43753638	     11.12942637	     -5.52865160	    -10.39312555	     51.30707264	     51.30707264	      2.37476112	    -13.71118211	    -15.27109556	     26.11817939	     -4.43120510	     -1.97533718	     28.28198002	     28.28198002	      9.90213942	    -15.75474260	      5.96525639	     -9.75733525	      3.64985757	      3.81659579	     38.63515591	    -13.67750879	     -0.97027000	    102.46515151	     44.59524243	      0.00000000	      0.00000000	    -12.00585450	     -6.67642857	      6.79057533	     25.49453531	     44.92759682	      0.00000000	      0.00000000
     10.80392857	     -4.41118292	     -4.13216658	      2.36041869	      1.01896561	      0.92129651	      0.43580050	     13.25714066	     -5.89085406	     -9.99724940	     54.96191411	     54.96191411	      1.05319403	    -14.83169066	    -11.05495795	     25.28589374	     -4.46848877	     -2.33457013	     27.81307509	     27.81307509	      9.80827073	    -15.55835316	      4.55404968	     -9.85495321	      3.73943059	      3.91712262	     36.28479814	    -13.50066833	     -1.67904606	    102.06105248	     44.65235962	      0.00000000	      0.00000000	    -11.32243663	     -7.14572398	      6.12302344	     28.32663596	     45.07373696	      0.00000000	      0.00000000
     10.81500000	     -4.34314830	     -4.00709215	      2.22961420	      1.01834627	      0.92241588	      0.43392732	     15.17949968	     -6.53448329	     -9.83343170	     58.06098812	     58.06098812	     -0.94143030	    -16.03169975	    -10.05321120	     24.42949023	     -4.29846929	     -2.64510023	     27.41557349	     27.41557349	     10.13195881	    -15.33278502	      4.38716388	     -9.95554187	      3.73638208	      3.62593307	     34.13423074	    -13.23097815	     -1.25437196	    101.08472493	     44.66347404	      0.00000000	      0.00000000	     -9.92675216	     -7.46085047	      6.00082210	     28.95284017	     45.11866037	      0.00000000	      0.00000000
     10.82607143	     -4.32567245	     -3.93426738	      2.06098439	      1.01762683	      0.92341078	      0.43230007	     17.15522123	     -7.02615368	     -9.61400117	     60.87004370	     60.87004370	     -2.47576023	    -17.12049139	     -8.64962205	     23.63373301	     -4.21322634	     -2.98815261	     27.00480216	     27.00480216	     10.43585400	    -15.06674708	      4.17248993	    -10.03335442	      3.73587397	      3.50634278	     31.88861086	    -13.12812643	     -0.98360082	     99.81441129	     44.68862597	      0.00000000	      0.00000000	     -8.53965114	     -7.79670663	      5.80253951	     29.75704720	     45.17385875	      0.00000000	      0.00000000
     10.83714286	     -4.29873652	     -4.01857422	      1.85533691	      1.01678910	      0.92433599	      0.43094265	     19.34125025	     -7.18151612	     -9.24211710	     63.83179285	     63.83179285	     -1.25849251	    -16.89068454	     -0.46456232	     22.85511251	     -4.34437219	     -3.39350898	     26.59981892	     26.59981892	     10.48335991	    -14.71616237	      3.00351866	    -10.11710745	      3.88460054	      3.43490107	     29.88191443	    -12.76873878	     -1.53728802	     97.51219801	     44.79445500	      0.00000000	      0.00000000	     -7.47474617	     -8.16344973	      4.77789352	     31.82025130	     45.36990437	      0.00000000	      0.00000000
